<?xml version="1.0" standalone="no"?>
<!DOCTYPE svg PUBLIC "-//W3C//DTD SVG 20010904//EN"
 "http://www.w3.org/TR/2001/REC-SVG-20010904/DTD/svg10.dtd">
<svg version="1.0" xmlns="http://www.w3.org/2000/svg"
 width="433.000000pt" height="577.000000pt" viewBox="0 0 433.000000 577.000000"
 preserveAspectRatio="xMidYMid meet">
<metadata>
Created by potrace 1.16, written by Peter Selinger 2001-2019
</metadata>
<g transform="translate(0.000000,577.000000) scale(0.100000,-0.100000)"
fill="#000000" stroke="none">
<path d="M2585 5104 c-200 -19 -300 -50 -425 -132 -110 -72 -249 -207 -300
-292 -45 -75 -82 -175 -111 -303 -22 -101 -102 -316 -121 -329 -10 -6 -10 -8
2 -8 8 0 0 -10 -17 -22 -24 -17 -35 -35 -42 -68 -15 -71 6 -235 50 -390 39
-133 80 -323 94 -430 9 -67 50 -196 73 -230 9 -14 24 -47 33 -73 16 -47 16
-47 -2 -31 -11 10 -21 15 -23 13 -2 -2 -21 -33 -43 -69 -21 -36 -46 -75 -54
-88 -8 -13 -30 -32 -49 -42 -266 -137 -425 -214 -506 -245 -54 -21 -125 -51
-156 -66 -32 -16 -108 -50 -170 -75 -61 -25 -124 -54 -140 -65 -34 -24 -59
-72 -83 -154 -9 -32 -27 -80 -40 -105 -28 -56 -48 -132 -70 -265 -12 -71 -29
-128 -60 -195 -54 -120 -108 -271 -136 -378 -18 -69 -30 -93 -74 -147 -67 -81
-114 -158 -171 -280 l-44 -95 0 -270 0 -270 703 0 702 0 20 26 c27 37 316 166
323 145 2 -5 18 -1 37 10 19 11 36 16 39 10 6 -10 117 -8 134 3 6 3 15 -6 20
-21 10 -27 10 -26 11 15 1 47 3 46 -59 24 -10 -3 -8 2 5 15 11 11 26 19 34 19
8 -1 18 13 23 30 8 33 33 49 111 74 68 21 216 105 232 130 14 23 -28 495 -45
505 -5 3 -6 20 -3 38 3 19 -5 68 -21 122 -14 50 -28 113 -31 140 -5 46 -5 49
10 31 21 -27 19 -7 -5 47 -23 52 -19 90 11 111 18 13 94 101 173 201 55 69 74
87 126 111 l44 21 -70 47 c-46 30 -77 44 -87 40 -9 -3 -17 -10 -17 -15 0 -5
-30 -24 -68 -43 l-67 -34 -94 10 c-58 6 -119 20 -160 37 -59 23 -66 29 -66 54
-1 19 -14 41 -43 69 -47 48 -43 49 -106 -35 -16 -21 -32 -34 -36 -30 -20 22
-34 206 -35 433 l0 246 34 67 c18 36 41 73 51 82 16 14 18 14 24 -1 4 -11 -8
-38 -35 -77 -41 -58 -41 -60 -36 -125 4 -64 17 -105 102 -350 58 -170 62 -175
188 -259 49 -33 85 -44 71 -21 -4 7 -3 8 5 4 15 -10 64 22 55 36 -4 6 1 8 14
4 30 -10 130 39 180 87 128 123 338 398 398 520 24 49 39 87 34 85 -5 -2 -66
-64 -136 -138 -140 -150 -207 -200 -266 -200 -21 0 -38 5 -38 10 0 6 9 10 21
10 12 0 38 13 58 28 20 15 47 33 61 39 20 9 21 12 6 12 -14 1 -16 4 -7 14 9
11 0 13 -47 10 l-57 -3 45 21 c25 11 66 22 92 24 69 5 104 28 204 132 52 54
98 93 105 91 22 -7 22 -147 0 -303 -33 -234 -41 -312 -51 -510 -11 -206 -32
-1086 -26 -1092 2 -2 24 5 50 16 36 16 59 19 108 14 64 -5 214 14 314 41 44
12 57 11 90 -1 98 -37 137 -43 194 -32 30 6 75 9 100 7 36 -2 47 -8 59 -30 21
-37 1 -71 -56 -99 -23 -11 -43 -23 -43 -26 0 -3 42 -3 94 0 84 5 99 3 142 -18
71 -33 105 -73 115 -137 7 -42 5 -56 -6 -68 -12 -11 -20 -12 -33 -4 -12 8 -25
8 -48 -2 -17 -7 -34 -11 -36 -9 -3 3 -54 7 -114 9 -105 3 -133 -2 -161 -30 -7
-7 -18 -14 -25 -16 -10 -4 -10 -10 1 -31 22 -41 91 -59 256 -66 152 -7 177
-15 212 -67 17 -26 33 -110 25 -132 -2 -8 -32 -10 -100 -6 -53 3 -100 8 -103
10 -4 2 -60 4 -125 5 -108 1 -124 -1 -175 -25 -32 -15 -82 -28 -120 -31 -60
-6 -89 -21 -89 -47 0 -4 227 -8 505 -8 l505 0 0 765 c0 766 -2 814 -34 815
-15 1 -48 48 -42 59 3 5 1 22 -4 38 -6 16 -12 98 -13 181 -2 123 1 153 12 157
11 4 12 8 3 17 -20 20 -14 28 29 34 l41 7 -26 16 c-14 9 -24 22 -21 29 2 7 -1
21 -7 31 -9 15 -8 29 6 65 10 25 16 52 14 58 -3 7 -13 -10 -23 -37 -11 -28
-23 -52 -27 -56 -16 -11 -29 -212 -26 -422 3 -185 1 -219 -12 -227 -13 -9 -13
-11 0 -20 12 -8 13 -11 1 -19 -9 -6 -10 -11 -2 -15 12 -8 5 -175 -8 -189 -4
-4 -4 -35 2 -69 7 -48 6 -63 -5 -69 -7 -5 -8 -9 -3 -9 6 0 17 -21 24 -46 12
-39 12 -47 0 -55 -11 -6 -11 -11 -1 -21 16 -16 15 -39 -4 -63 l-16 -20 3 20
c2 11 -3 41 -10 67 -10 37 -11 51 -2 62 10 11 8 16 -8 21 -23 7 -27 25 -10 42
8 8 7 19 -4 39 -11 21 -12 35 -4 58 8 22 7 31 -1 34 -7 2 -10 13 -6 28 4 15 2
24 -5 24 -6 0 -11 9 -11 20 0 11 4 20 10 20 5 0 7 6 4 13 -3 8 0 26 6 41 5 15
6 25 1 22 -5 -3 -12 1 -15 10 -3 8 -10 12 -16 9 -5 -3 -10 -2 -10 4 0 5 5 13
10 16 6 3 10 26 10 51 0 24 5 44 10 44 14 0 12 38 -2 42 -8 3 -11 23 -9 57 3
55 -13 80 -50 81 -18 0 -31 41 -19 60 7 12 40 3 40 -11 0 -13 24 -11 37 2 8 8
6 20 -8 44 -11 18 -19 37 -17 41 1 5 -3 19 -10 32 -7 12 -10 27 -7 32 8 13
-66 86 -83 82 -8 -2 -11 1 -7 7 9 16 -3 31 -20 24 -17 -6 -21 -88 -5 -98 5 -3
7 -11 4 -18 -3 -8 2 -26 10 -42 15 -29 9 -56 -16 -71 -7 -4 -8 -3 -4 5 4 6 0
14 -10 18 -10 3 -26 15 -36 25 -16 16 -16 19 -3 24 22 9 18 34 -5 34 -11 0
-20 5 -20 11 0 7 10 9 25 5 15 -4 25 -2 25 4 0 11 -7 14 -52 24 -20 5 -27 13
-30 34 -2 15 -8 26 -15 24 -8 -1 -13 8 -13 23 0 18 5 25 20 25 27 0 25 24 -2
37 -13 6 -26 10 -29 9 -18 -3 -49 40 -49 66 0 21 -6 31 -20 35 -11 3 -20 9
-20 14 0 5 -7 9 -16 9 -11 0 -15 -8 -12 -27 2 -23 -1 -27 -16 -25 -42 7 -115
107 -125 169 -5 39 -10 48 -25 46 -27 -2 -51 24 -38 40 8 10 0 18 -36 34 -26
11 -64 25 -85 29 -21 5 -38 13 -37 18 1 5 -15 18 -35 28 -43 22 -275 39 -275
20 0 -6 16 -27 35 -48 46 -49 108 -148 95 -152 -5 -2 -10 -15 -10 -28 0 -19 5
-24 25 -24 25 0 35 -23 15 -35 -15 -9 -12 -42 5 -49 8 -3 15 -12 15 -21 0 -8
5 -15 10 -15 16 0 12 15 -11 44 -11 14 -17 30 -14 36 11 17 23 11 29 -15 4
-14 11 -25 16 -25 5 0 6 -7 3 -17 -4 -10 -2 -14 4 -10 15 9 23 -16 23 -68 0
-35 4 -44 23 -50 12 -4 26 -7 30 -6 5 1 6 -3 2 -9 -3 -5 -2 -10 4 -10 6 0 15
-9 21 -19 9 -18 7 -19 -25 -16 -19 2 -35 -1 -35 -6 0 -5 4 -9 9 -9 5 0 11 -11
13 -24 6 -31 -29 -50 -55 -31 -9 6 -14 15 -11 18 3 3 -4 3 -17 0 -13 -4 -18
-8 -11 -11 6 -2 12 -11 12 -19 0 -14 -3 -14 -19 1 -11 10 -17 24 -15 31 4 8
-7 20 -24 29 -31 16 -76 69 -66 79 3 3 6 19 6 36 1 22 -6 37 -20 47 -12 8 -22
22 -22 30 0 8 -11 19 -25 24 -14 5 -25 14 -25 20 0 5 -11 10 -25 10 -25 0 -31
13 -19 44 7 19 30 21 37 4 3 -8 8 -6 13 7 9 24 36 45 47 38 4 -2 21 -1 38 2
l31 7 -48 44 c-27 24 -56 46 -65 49 -9 3 -20 13 -23 23 -15 39 -42 82 -49 76
-4 -4 -7 0 -7 10 0 9 5 14 10 11 6 -3 10 -1 10 4 0 6 -4 11 -9 11 -10 0 -27
39 -23 53 1 4 -3 7 -9 7 -6 0 -9 6 -6 14 3 7 1 18 -5 24 -8 8 3 29 34 74 62
86 123 196 148 265 23 65 41 183 28 183 -4 0 -8 -7 -8 -15 0 -8 -9 -15 -20
-15 -11 0 -20 -7 -20 -15 0 -9 -6 -12 -15 -9 -10 4 -13 13 -10 25 5 14 1 19
-12 19 -17 1 -17 1 1 12 32 18 65 62 66 86 0 23 25 31 33 10 4 -10 6 -10 6 0
1 7 5 11 11 7 22 -14 40 43 44 139 2 53 7 100 10 103 9 9 -35 54 -45 47 -5 -3
-9 1 -9 8 0 10 -3 9 -9 -2 -7 -10 -13 -2 -21 33 -8 30 -19 48 -31 52 -16 5
-107 12 -187 14 -20 1 -22 5 -20 45 2 31 7 42 16 38 16 -6 42 27 35 45 -3 7
-12 13 -20 13 -13 0 -13 -3 -3 -15 7 -9 11 -18 8 -20 -9 -9 -38 7 -38 20 0 8
-8 11 -21 8 -16 -5 -20 -2 -17 8 3 8 11 13 18 11 11 -2 11 0 2 11 -7 9 -23 12
-39 9 -18 -3 -24 -1 -19 6 8 14 89 6 94 -8 2 -6 10 -10 19 -10 8 0 26 -9 40
-20 28 -22 55 -28 35 -8 -20 20 -14 33 7 14 10 -9 25 -14 35 -10 11 4 16 1 16
-10 0 -10 6 -13 18 -10 48 16 48 16 27 24 -17 7 -17 9 -2 9 9 1 17 6 17 11 0
14 -23 12 -39 -2 -11 -11 -13 -10 -8 5 4 10 1 17 -6 17 -16 0 -20 42 -5 51 19
12 -20 100 -61 139 -20 19 -38 35 -41 36 -3 0 -21 8 -41 17 -24 10 -53 14 -84
11 -60 -5 -85 2 -85 24 0 15 -2 15 -10 2 -9 -13 -11 -13 -20 0 -5 8 -11 19
-13 24 -2 6 -35 11 -74 11 -38 1 -76 6 -83 10 -8 5 -18 2 -26 -9 -9 -13 -13
-14 -16 -4 -3 8 -9 5 -17 -10 -12 -23 -40 -29 -58 -11 -11 11 -108 17 -119 7
-3 -4 -17 -3 -31 3 -13 5 -32 9 -41 9 -15 0 -15 -2 -2 -11 12 -8 10 -9 -7 -4
-12 3 -24 2 -27 -4 -3 -5 -15 -7 -25 -4 -10 3 -22 0 -25 -6 -4 -6 -18 -11 -31
-11 -20 0 -23 -4 -20 -35 3 -26 0 -35 -12 -35 -10 0 -13 -6 -9 -16 3 -9 6 -20
6 -25 0 -5 11 -9 24 -9 14 0 28 -4 31 -10 3 -5 28 -12 55 -16 27 -4 48 -10 45
-13 -2 -4 8 -7 23 -8 64 -2 71 -4 77 -23 3 -11 15 -20 26 -20 10 0 19 -4 19
-10 0 -5 -7 -10 -16 -10 -8 0 -12 -5 -9 -10 4 -6 11 -7 17 -4 7 4 8 2 4 -4
-11 -19 -43 -14 -49 7 -3 14 -11 18 -26 14 -12 -3 -24 -10 -28 -16 -4 -6 3 -8
21 -3 15 4 26 2 26 -4 0 -5 -12 -10 -27 -10 -22 0 -25 -2 -13 -10 11 -8 8 -9
-12 -4 -34 8 -38 -12 -5 -27 21 -9 20 -9 -5 -4 -22 4 -25 2 -21 -15 3 -11 0
-20 -6 -20 -6 0 -11 7 -11 16 0 13 -3 14 -14 5 -10 -8 -16 -9 -21 -1 -3 5 -14
10 -23 10 -9 0 -28 9 -41 19 -14 10 -30 17 -37 14 -7 -3 -23 2 -36 11 -25 18
-93 22 -103 6 -10 -16 -45 -12 -39 4 3 8 1 17 -5 21 -19 11 -12 27 9 20 14 -5
20 -2 20 10 0 9 -4 14 -9 10 -6 -3 -15 4 -21 15 -9 16 -8 20 5 20 18 0 19 13
5 41 -9 17 -7 21 18 32 16 6 27 18 25 25 -3 7 4 12 16 12 18 0 20 4 15 25 -4
18 0 30 20 48 14 13 26 29 26 36 0 6 9 11 20 11 13 0 20 7 20 18 0 10 3 22 7
26 4 3 8 14 9 24 2 9 8 18 13 20 16 5 13 23 -6 38 -10 7 -14 16 -10 20 4 5 12
2 17 -6 6 -8 10 -12 11 -7 1 4 3 12 4 17 1 6 3 14 4 19 0 5 20 16 44 24 23 9
35 16 26 16 -9 1 -19 7 -22 14 -6 17 27 57 47 57 9 0 16 6 16 14 0 8 7 16 15
20 8 3 15 1 15 -4 0 -6 5 -10 10 -10 6 0 10 6 10 14 0 11 8 12 41 5 23 -5 63
-7 91 -4 27 3 53 3 59 -1 6 -3 49 -8 97 -11 48 -2 92 -9 98 -14 7 -5 30 -7 53
-3 33 5 41 4 41 -9 0 -11 10 -15 35 -14 19 1 42 -6 53 -16 21 -19 52 -23 52
-6 0 6 6 9 14 6 10 -4 12 0 9 14 -4 14 0 19 15 19 11 0 22 5 24 12 2 6 15 12
29 14 13 1 26 3 28 3 2 1 -2 7 -8 15 -9 11 -7 15 11 20 34 9 38 8 38 -9 0 -8
6 -15 13 -15 6 0 25 -7 41 -15 16 -9 31 -13 34 -11 9 10 -9 38 -21 33 -19 -7
-45 15 -52 46 -7 26 -6 27 20 17 28 -11 49 -5 28 8 -7 5 -6 12 5 22 14 13 15
12 9 -3 -4 -11 -1 -17 8 -17 18 0 20 -20 3 -21 -7 0 -4 -4 7 -9 32 -14 35 -12
24 20 -6 16 -9 37 -7 47 3 13 9 8 21 -19 9 -21 20 -38 24 -38 14 0 33 23 33
39 0 11 -4 10 -15 -5 -14 -19 -14 -18 -15 4 0 12 -3 21 -7 20 -5 -2 -18 6 -30
17 -18 16 -23 30 -23 72 0 47 -3 53 -30 70 -16 9 -30 21 -30 26 0 14 -82 88
-136 123 -103 66 -279 109 -399 98z m-756 -1560 c17 -8 29 -20 25 -25 -3 -5 2
-12 10 -15 9 -3 16 -12 16 -19 0 -6 9 -20 20 -30 21 -19 27 -45 9 -45 -5 0 -8
-4 -5 -9 3 -4 -6 -13 -20 -20 -31 -14 -94 -4 -94 14 0 7 -5 15 -12 17 -19 7
-27 68 -15 113 3 11 6 23 6 28 1 12 26 8 60 -9z m645 -97 c42 -91 58 -178 35
-193 -6 -3 -9 -15 -6 -25 3 -11 0 -20 -6 -20 -35 -4 -77 -20 -77 -30 0 -13 14
-11 28 3 9 9 15 9 24 0 9 -9 8 -12 -5 -12 -9 0 -17 -4 -17 -9 0 -12 28 -22 35
-12 2 5 19 8 37 6 27 -2 34 -7 36 -29 2 -14 7 -26 12 -26 4 0 13 -12 19 -27 7
-16 18 -39 26 -53 8 -14 15 -48 15 -77 0 -67 8 -87 26 -72 11 9 16 6 25 -18 5
-17 20 -36 33 -42 12 -7 23 -19 23 -26 0 -8 -4 -12 -9 -9 -5 3 -7 -13 -4 -35
5 -38 -5 -54 -19 -31 -4 6 -12 4 -21 -5 -19 -19 -34 -19 -34 0 0 9 -6 12 -15
9 -8 -4 -15 -1 -15 6 0 7 -7 10 -15 6 -8 -3 -14 0 -12 6 1 6 -10 14 -25 19
-33 9 -34 5 -8 -23 24 -26 27 -68 5 -68 -9 0 -30 7 -47 16 -21 11 -50 15 -94
12 -35 -2 -64 0 -64 3 0 10 -66 20 -177 26 -57 2 -103 6 -103 8 0 23 15 34 38
28 21 -5 24 -3 19 11 -4 10 -7 22 -7 27 0 5 -11 7 -24 3 -43 -10 -146 15 -172
43 -32 35 -32 78 2 99 19 13 22 19 12 25 -10 7 -9 9 3 9 9 0 16 7 15 17 -1 20
37 33 113 38 61 4 63 6 75 87 4 26 11 50 17 53 19 12 8 27 -16 23 -21 -5 -23
-3 -14 15 8 15 8 22 -2 28 -18 11 -26 11 -34 -1 -3 -6 1 -7 9 -4 9 3 16 1 16
-5 0 -13 -36 -15 -44 -2 -3 5 -25 7 -49 4 -43 -6 -44 10 -2 20 18 4 18 5 -2 6
-26 1 -30 16 -7 25 8 3 13 10 10 15 -3 5 1 11 9 15 8 3 15 0 16 -7 0 -9 2 -9
6 1 2 6 11 12 19 12 8 0 14 4 14 8 0 4 12 13 28 19 34 15 55 30 100 70 19 18
37 31 40 29 2 -2 -4 -18 -13 -36 l-16 -31 28 15 c47 26 63 42 63 63 0 11 6 26
14 32 21 17 28 -37 9 -66 -10 -15 -11 -23 -4 -23 6 0 11 7 11 15 0 8 5 15 10
15 6 0 10 9 10 20 0 11 9 29 20 40 26 26 53 14 74 -33z m-242 -849 c54 -27
100 -43 133 -45 27 -3 60 -9 72 -15 34 -17 4 -39 -62 -44 -54 -4 -55 -4 -55
22 l0 27 -26 -28 c-19 -21 -28 -25 -34 -15 -4 7 -15 10 -24 7 -9 -4 -16 -1
-16 6 0 9 -2 9 -8 1 -8 -14 -52 0 -52 16 0 18 -56 70 -76 70 -18 1 -18 1 1 16
17 13 18 16 5 25 -38 27 66 -5 142 -43z m-328 -844 c35 -96 66 -202 66 -231 0
-12 7 -29 17 -38 14 -14 14 -22 5 -48 -6 -18 -21 -92 -33 -166 l-23 -133 -13
43 c-12 40 -84 370 -119 549 -8 41 -12 80 -10 87 3 8 22 13 43 13 l38 0 29
-76z"/>
<path d="M2140 2986 c0 -15 24 -51 46 -68 12 -10 28 -40 35 -68 7 -27 16 -50
21 -50 4 0 5 -7 2 -15 -7 -18 -26 -20 -23 -2 3 18 -11 47 -23 47 -6 0 -7 -8
-3 -17 4 -10 7 -27 7 -38 -1 -17 11 -23 77 -39 143 -33 265 -1 248 65 -5 20
27 53 63 64 10 3 20 14 22 23 4 14 -2 18 -25 20 -16 1 -38 7 -48 13 -14 7 -19
6 -19 -3 0 -11 -2 -11 -8 0 -13 20 -74 23 -101 6 -17 -12 -25 -13 -31 -5 -3 7
-53 18 -110 25 -78 10 -107 18 -117 32 -7 10 -13 14 -13 10z"/>
<path d="M3335 3678 c-11 -6 -21 -12 -23 -13 -7 -6 -40 -167 -46 -225 -7 -75
4 -72 34 11 18 51 25 56 20 15 -3 -30 23 -13 47 30 22 40 33 114 12 84 -8 -12
-9 -11 -5 5 17 69 18 88 5 96 -18 11 -20 11 -44 -3z"/>
<path d="M1810 173 c-8 -3 -26 -10 -40 -15 -22 -8 -23 -10 -8 -19 10 -6 24 -9
32 -7 8 2 15 0 15 -4 2 -23 -1 -28 -19 -28 -11 0 -20 -5 -20 -11 0 -5 -5 -7
-10 -4 -6 4 -18 1 -26 -6 -13 -10 -17 -10 -25 2 -5 8 -7 22 -5 32 3 10 0 17
-7 14 -19 -6 -65 -71 -69 -97 l-3 -25 115 -3 c127 -3 223 18 213 46 -4 9 -15
12 -34 8 -16 -3 -29 -1 -29 4 0 6 8 10 18 10 34 0 54 23 47 53 -4 15 -12 27
-17 27 -6 0 -8 -9 -5 -20 3 -11 -2 -25 -11 -32 -13 -11 -14 -10 -8 15 4 19 3
26 -4 22 -5 -3 -10 -14 -10 -25 0 -10 -7 -21 -16 -24 -20 -8 -33 2 -18 12 11
7 44 65 44 77 0 3 -13 -1 -30 -10 -38 -19 -61 -20 -54 0 7 16 6 16 -16 8z"/>
</g>
</svg>
